<?xml version="1.0" standalone="no"?>
<!DOCTYPE svg PUBLIC "-//W3C//DTD SVG 20010904//EN"
 "http://www.w3.org/TR/2001/REC-SVG-20010904/DTD/svg10.dtd">
<svg version="1.0" xmlns="http://www.w3.org/2000/svg"
 width="488.000000pt" height="511.000000pt" viewBox="0 0 488.000000 511.000000"
 preserveAspectRatio="xMidYMid meet">

<g transform="translate(0.000000,511.000000) scale(0.100000,-0.100000)"
fill="#fff" stroke="none">
<path d="M2285 4873 c-33 -9 -63 -33 -73 -61 -6 -15 -25 -112 -42 -217 -17
-104 -34 -193 -38 -196 -4 -3 -34 -11 -67 -18 -53 -11 -201 -52 -238 -67 -9
-3 -63 55 -142 151 -70 86 -137 163 -149 171 -41 29 -84 17 -216 -57 -212
-121 -209 -108 -109 -374 l73 -196 -120 -119 -120 -120 -187 70 c-103 38 -202
70 -221 70 -18 0 -44 -9 -58 -20 -36 -28 -178 -280 -178 -316 0 -44 18 -64
178 -196 81 -67 151 -125 156 -129 5 -5 -4 -53 -23 -116 -17 -59 -37 -132 -44
-162 l-12 -54 -196 -33 c-234 -38 -233 -38 -259 -74 -18 -26 -20 -43 -20 -199
l0 -171 28 -30 c26 -30 35 -32 232 -65 113 -19 208 -35 212 -35 3 0 9 -19 13
-42 4 -24 23 -96 41 -161 19 -65 34 -120 34 -122 0 -2 -71 -62 -158 -133 -154
-127 -182 -159 -182 -206 0 -12 37 -87 83 -167 77 -135 84 -145 123 -158 42
-15 42 -14 239 60 l198 76 118 -120 c66 -65 119 -122 119 -126 0 -4 -31 -90
-70 -192 -38 -101 -70 -194 -70 -207 0 -51 26 -76 162 -154 73 -42 145 -80
160 -83 49 -12 88 19 218 180 69 85 132 154 141 154 9 1 41 -8 71 -18 30 -10
98 -29 150 -41 l95 -22 35 -210 c48 -280 30 -262 262 -266 l173 -3 31 26 c37
31 42 47 78 270 15 94 30 174 34 178 4 5 45 17 91 27 46 11 116 30 156 44 l72
24 132 -160 c143 -174 175 -198 231 -179 53 19 277 152 293 174 26 38 17 88
-56 277 l-70 186 120 120 120 120 198 -74 c182 -68 201 -73 234 -63 46 14 52
21 137 172 73 128 84 167 62 210 -6 10 -77 74 -158 141 -81 66 -153 126 -160
133 -10 9 -10 18 -1 41 6 16 26 87 44 159 29 113 36 130 57 137 12 4 100 19
193 33 94 15 184 33 200 41 54 25 60 45 63 210 4 164 -5 209 -50 238 -12 8
-106 29 -208 46 -102 16 -194 32 -206 35 -16 4 -23 17 -33 71 -7 37 -26 109
-42 161 l-30 94 23 18 c140 111 286 237 300 259 32 49 23 83 -59 228 -81 141
-103 164 -161 164 -16 0 -113 -31 -215 -70 l-186 -70 -121 121 -121 121 71
185 c38 101 70 197 70 213 0 39 -17 73 -43 90 -109 68 -248 143 -274 147 -57
10 -85 -12 -212 -167 -67 -82 -128 -154 -135 -159 -9 -8 -29 -5 -72 10 -32 11
-104 31 -159 43 l-100 23 -33 204 c-18 112 -40 215 -48 227 -28 42 -71 52
-221 51 -76 -1 -147 -4 -158 -6z m-65 -1270 l-1 -348 -78 -37 c-135 -64 -266
-205 -328 -353 -33 -79 -47 -162 -46 -275 l2 -106 -300 -173 c-165 -95 -302
-172 -304 -169 -2 2 -16 44 -30 93 -175 603 81 1238 630 1559 119 69 353 154
433 155 l22 1 0 -347z m616 312 c417 -121 757 -453 899 -878 84 -253 88 -555
9 -815 -14 -46 -29 -82 -34 -80 -5 2 -142 80 -304 173 l-295 170 6 85 c18 268
-130 525 -374 647 l-73 36 0 350 0 350 38 -7 c22 -3 79 -17 128 -31z m-736
-1884 c99 -60 177 -83 303 -89 169 -7 294 26 419 113 l62 44 31 -18 c16 -10
149 -87 295 -171 146 -84 269 -156 274 -161 5 -4 -23 -41 -65 -85 -192 -198
-450 -336 -729 -390 -139 -27 -381 -25 -517 4 -273 59 -496 178 -690 368 -53
52 -93 97 -90 100 3 3 140 84 304 179 271 157 300 171 318 159 11 -8 49 -32
85 -53z"/>
</g>
</svg>
