<?xml version="1.0" standalone="no"?>
<!DOCTYPE svg PUBLIC "-//W3C//DTD SVG 20010904//EN"
 "http://www.w3.org/TR/2001/REC-SVG-20010904/DTD/svg10.dtd">
<svg version="1.0" xmlns="http://www.w3.org/2000/svg"
 width="499.000000pt" height="499.000000pt" viewBox="0 0 499.000000 499.000000"
 preserveAspectRatio="xMidYMid meet">

<g transform="translate(0.000000,499.000000) scale(0.100000,-0.100000)"
fill="#000000" stroke="none">
<path d="M1943 4071 c-290 -107 -375 -474 -161 -690 89 -91 233 -142 351 -126
26 4 47 4 47 1 0 -4 -23 -39 -50 -79 -28 -39 -50 -80 -48 -91 2 -10 15 -28 30
-39 l28 -21 25 24 c14 13 24 29 21 36 -2 6 11 27 30 45 l34 33 0 -66 c0 -71
16 -100 26 -48 4 17 11 33 16 36 6 4 7 -19 1 -62 -12 -105 -9 -214 8 -225 10
-6 10 -9 2 -9 -7 0 -34 -21 -60 -47 l-48 -47 -205 -1 c-198 0 -207 -1 -255
-25 -145 -72 -42 -205 261 -338 210 -92 528 -182 789 -223 185 -28 417 -31
490 -5 91 33 115 78 80 147 -22 42 -120 111 -253 177 -106 53 -117 61 -150
112 -19 30 -62 82 -96 114 -35 34 -60 66 -58 75 3 12 0 11 -11 -3 -14 -19 -15
-19 -31 13 -9 17 -28 37 -42 43 -16 8 -21 14 -13 19 14 9 17 124 6 222 -8 69
4 88 17 27 9 -48 26 -25 26 36 0 50 10 68 25 44 3 -5 19 -19 35 -30 l30 -21
10 25 c5 14 12 26 16 26 3 0 3 -7 0 -16 -3 -8 -3 -26 0 -40 5 -20 9 -22 25
-14 39 21 68 120 35 120 -8 0 -17 8 -19 18 -4 15 -5 15 -6 1 -2 -25 -31 -32
-47 -12 -7 10 -34 53 -59 96 -26 43 -56 83 -66 90 -23 14 -25 29 -4 21 8 -4
15 -1 15 4 0 20 -21 24 -45 8 -13 -9 -27 -16 -31 -16 -5 0 25 40 71 93 29 33
38 64 29 104 l-8 38 -6 -35 c-5 -23 -8 -27 -9 -12 -2 39 -31 96 -68 134 -33
34 -35 40 -31 82 3 25 2 46 -3 46 -5 0 -9 -21 -9 -46 0 -40 -2 -45 -17 -39
-155 59 -310 -10 -349 -153 -11 -41 -13 -43 -14 -17 l-2 30 -11 -25 c-7 -14
-21 -38 -32 -54 -28 -42 -27 -129 3 -179 30 -51 22 -61 -46 -53 -118 14 -236
97 -291 204 -86 168 -19 391 146 488 59 34 157 57 218 51 l50 -5 -45 21 c-64
31 -224 35 -297 8z m656 -396 c49 -25 73 -71 68 -128 -7 -85 -69 -139 -160
-140 -192 -2 -246 226 -67 284 36 12 122 3 159 -16z m-359 -153 c0 -5 9 -20
20 -33 71 -85 81 -99 74 -99 -4 0 -15 7 -25 16 -19 17 -49 13 -49 -6 0 -7 9
-9 23 -4 20 6 19 3 -8 -24 -34 -34 -42 -33 -61 14 -16 39 -18 82 -4 118 9 24
30 36 30 18z m358 -255 c7 -8 9 -36 5 -70 l-6 -58 -101 3 -101 3 -2 45 c-5 89
-5 89 101 89 64 0 97 -3 104 -12z m-53 -291 c38 -39 60 -157 35 -196 -6 -10
-10 -11 -10 -2 0 8 -21 12 -69 12 -46 0 -71 -4 -74 -12 -12 -34 -18 70 -7 120
21 93 76 127 125 78z m-436 -325 c11 -7 7 -17 -22 -48 -32 -33 -91 -138 -111
-196 -5 -16 -10 -16 -58 9 -127 64 -217 148 -202 188 5 14 61 39 109 49 39 9
270 7 284 -2z m991 -269 c150 -75 236 -147 228 -189 -2 -9 -19 -26 -38 -37
-30 -18 -55 -21 -185 -24 -149 -4 -387 17 -421 36 -10 6 23 9 97 9 120 0 215
19 239 48 13 16 10 142 -5 178 -10 24 1 22 85 -21z"/>
<path d="M2555 3649 c11 -7 34 -21 50 -32 l30 -20 -25 25 c-14 14 -36 29 -50
32 -23 6 -23 6 -5 -5z"/>
<path d="M2425 3250 c-3 -5 1 -10 10 -10 9 0 13 5 10 10 -3 6 -8 10 -10 10 -2
0 -7 -4 -10 -10z"/>
<path d="M2170 3790 c-13 -13 -13 -17 0 -30 13 -13 17 -13 33 3 13 13 14 17 3
17 -8 0 -16 6 -18 13 -2 10 -7 9 -18 -3z"/>
<path d="M2870 3620 c0 -5 5 -10 11 -10 5 0 7 5 4 10 -3 6 -8 10 -11 10 -2 0
-4 -4 -4 -10z"/>
<path d="M2964 3545 c-4 -9 -2 -21 3 -26 7 -7 5 -34 -8 -82 -20 -77 -24 -116
-8 -82 6 15 8 9 6 -25 l-2 -45 43 -3 c45 -3 252 24 261 35 3 3 -12 3 -34 -1
-30 -5 -36 -4 -25 4 8 6 44 9 79 8 l64 -3 13 35 12 35 2 -30 c2 -22 6 -15 16
30 19 85 18 93 -18 111 -34 17 -69 16 -230 -6 -109 -16 -140 -9 -136 27 3 31
-28 46 -38 18z m268 -109 c15 -12 27 -25 27 -31 0 -15 -67 -55 -91 -55 -25 0
-58 27 -58 48 0 8 -8 21 -17 28 -23 16 -13 25 34 34 46 9 70 4 105 -24z"/>
<path d="M3361 3314 c0 -11 3 -14 6 -6 3 7 2 16 -1 19 -3 4 -6 -2 -5 -13z"/>
<path d="M3288 3303 c7 -3 16 -2 19 1 4 3 -2 6 -13 5 -11 0 -14 -3 -6 -6z"/>
<path d="M2921 3274 c0 -11 3 -14 6 -6 3 7 2 16 -1 19 -3 4 -6 -2 -5 -13z"/>
<path d="M3345 3280 c3 -5 8 -10 11 -10 2 0 4 5 4 10 0 6 -5 10 -11 10 -5 0
-7 -4 -4 -10z"/>
<path d="M2862 3020 c0 -14 2 -19 5 -12 2 6 2 18 0 25 -3 6 -5 1 -5 -13z"/>
<path d="M2851 2974 c0 -11 3 -14 6 -6 3 7 2 16 -1 19 -3 4 -6 -2 -5 -13z"/>
<path d="M2831 2894 c0 -11 3 -14 6 -6 3 7 2 16 -1 19 -3 4 -6 -2 -5 -13z"/>
<path d="M2933 2874 c-9 -9 -9 -15 1 -23 10 -8 16 -8 24 1 15 19 -9 40 -25 22z"/>
<path d="M2822 2850 c0 -14 2 -19 5 -12 2 6 2 18 0 25 -3 6 -5 1 -5 -13z"/>
<path d="M2811 2804 c0 -11 3 -14 6 -6 3 7 2 16 -1 19 -3 4 -6 -2 -5 -13z"/>
<path d="M1960 2226 c0 -159 94 -327 237 -422 176 -117 415 -119 588 -6 33 22
79 59 102 83 39 42 103 135 103 150 0 4 -26 10 -57 14 -296 31 -662 122 -905
225 l-68 29 0 -73z m110 -206 c105 -164 316 -260 504 -230 113 18 175 48 280
134 66 54 45 15 -26 -49 -202 -182 -519 -165 -704 39 -53 58 -109 156 -90 156
2 0 18 -22 36 -50z"/>
<path d="M2270 1455 c0 -56 16 -77 22 -28 4 39 28 42 28 4 0 -17 5 -31 10 -31
6 0 10 16 10 35 0 31 -3 35 -25 35 -18 0 -25 5 -25 20 0 11 -4 20 -10 20 -5 0
-10 -25 -10 -55z"/>
<path d="M2192 1488 c-7 -7 -12 -24 -12 -38 0 -14 5 -31 12 -38 15 -15 54 -16
63 -2 4 6 -5 10 -20 10 -49 0 -44 57 6 71 22 6 22 7 -6 8 -17 1 -36 -4 -43
-11z"/>
<path d="M2560 1475 c-6 -14 -14 -36 -20 -50 -7 -19 -6 -25 4 -25 8 0 16 7 20
15 7 20 26 19 42 -2 21 -29 25 -9 8 40 -18 52 -39 61 -54 22z m26 -32 c-11
-11 -17 4 -9 23 7 18 8 18 11 1 2 -10 1 -21 -2 -24z"/>
<path d="M2440 1475 c-9 -10 -9 -15 -1 -15 6 0 11 -13 11 -30 0 -17 5 -30 13
-30 10 0 13 28 8 83 -1 12 -18 8 -31 -8z"/>
<path d="M2380 1461 l25 -7 -22 -8 c-13 -4 -23 -16 -23 -26 0 -14 7 -18 30
-18 27 1 30 4 30 35 0 31 -2 33 -32 32 -31 -1 -31 -1 -8 -8z m20 -29 c0 -13
-12 -22 -22 -16 -10 6 -1 24 13 24 5 0 9 -4 9 -8z"/>
<path d="M2650 1425 c0 -42 19 -66 21 -27 3 49 5 56 17 59 7 3 12 -4 12 -14 0
-11 -6 -25 -12 -32 -11 -10 -9 -12 6 -9 24 4 41 31 33 52 -4 11 -18 16 -42 16
-35 0 -35 0 -35 -45z"/>
<path d="M2740 1425 c0 -42 19 -66 21 -27 3 49 5 56 17 59 7 3 12 -4 12 -14 0
-11 -6 -25 -12 -32 -11 -10 -9 -12 6 -9 24 4 41 31 33 52 -4 11 -18 16 -42 16
-35 0 -35 0 -35 -45z"/>
<path d="M1920 1109 c0 -29 3 -49 7 -46 3 4 6 25 5 48 -2 34 1 40 16 37 10 -2
17 -12 16 -26 0 -16 2 -20 10 -12 15 15 -5 44 -33 48 -19 3 -21 -1 -21 -49z"/>
<path d="M2031 1108 c1 -29 4 -43 6 -30 5 27 27 29 39 2 7 -16 9 -10 10 27 0
27 -1 38 -3 26 -3 -15 -12 -23 -24 -23 -24 0 -26 37 -1 43 13 4 11 5 -5 6 -21
1 -23 -3 -22 -51z"/>
<path d="M2151 1146 c-7 -8 -11 -30 -9 -48 3 -29 6 -33 33 -33 27 0 30 4 33
33 3 35 -11 62 -33 62 -7 0 -18 -6 -24 -14z m47 -39 c3 -34 1 -37 -22 -37 -23
0 -26 4 -26 33 0 38 7 49 30 45 9 -2 16 -16 18 -41z"/>
<path d="M2260 1110 c0 -46 2 -50 23 -50 13 0 28 5 35 12 29 29 2 88 -39 88
-16 0 -19 -7 -19 -50z m50 26 c18 -23 8 -61 -17 -64 -21 -3 -23 1 -23 37 0 43
17 54 40 27z"/>
<path d="M2442 1125 c-1 -23 -7 -46 -14 -53 -9 -9 -9 -12 0 -12 18 0 24 22 19
66 l-4 39 -1 -40z"/>
<path d="M2511 1146 c-16 -18 -10 -79 7 -82 7 -1 8 0 2 3 -17 8 -12 71 8 82 9
6 12 11 6 11 -6 0 -17 -6 -23 -14z"/>
<path d="M2618 1142 c11 -12 18 -14 20 -5 2 6 11 14 20 16 9 3 0 5 -20 6 -36
1 -37 0 -20 -17z"/>
<path d="M2713 1110 c0 -30 2 -43 4 -27 2 15 2 39 0 55 -2 15 -4 2 -4 -28z"/>
<path d="M2781 1146 c-17 -20 -10 -78 9 -83 12 -4 12 -3 2 5 -8 5 -12 23 -10
43 2 26 8 34 23 34 15 0 21 -8 23 -34 2 -20 -2 -38 -10 -43 -10 -8 -10 -9 2
-5 33 8 20 97 -15 97 -7 0 -18 -6 -24 -14z"/>
<path d="M3027 1153 c-4 -3 -7 -16 -6 -27 0 -20 1 -19 10 3 6 15 14 21 25 17
8 -3 12 -2 9 4 -7 11 -28 13 -38 3z"/>
<path d="M2892 1103 c1 -38 2 -41 5 -15 3 24 8 32 19 28 11 -4 12 -2 1 14 -19
32 -27 23 -25 -27z"/>
<path d="M2960 1119 c0 -23 -4 -30 -15 -25 -12 4 -13 2 -2 -14 19 -31 27 -24
27 25 0 25 -2 45 -5 45 -3 0 -5 -14 -5 -31z"/>
<path d="M2380 1091 c0 -11 4 -22 9 -25 4 -3 6 6 3 19 -5 30 -12 33 -12 6z"/>
<path d="M2632 1080 c0 -14 2 -19 5 -12 2 6 2 18 0 25 -3 6 -5 1 -5 -13z"/>
<path d="M3057 1080 c-3 -11 -1 -20 4 -20 5 0 9 9 9 20 0 11 -2 20 -4 20 -2 0
-6 -9 -9 -20z"/>
</g>
</svg>
