<?xml version="1.0" standalone="no"?>
<!DOCTYPE svg PUBLIC "-//W3C//DTD SVG 20010904//EN"
 "http://www.w3.org/TR/2001/REC-SVG-20010904/DTD/svg10.dtd">
<svg version="1.0" xmlns="http://www.w3.org/2000/svg"
 width="344.000000pt" height="726.000000pt" viewBox="0 0 344.000000 726.000000"
 preserveAspectRatio="xMidYMid meet">

<g transform="translate(0.000000,726.000000) scale(0.100000,-0.100000)"
fill="#2A1733" stroke="none">
<path d="M1499 5120 c-419 -48 -798 -263 -1038 -589 -98 -133 -124 -182 -220
-411 -26 -62 -41 -82 -83 -115 -71 -55 -88 -64 -125 -65 -33 0 -33 -1 -33 -48
0 -46 1 -48 30 -50 38 -3 63 10 117 59 59 54 91 55 170 4 l52 -34 45 16 c43
16 46 16 67 -3 16 -14 41 -20 105 -25 75 -5 87 -8 114 -34 36 -34 39 -63 8
-69 -13 -3 -136 -7 -274 -9 -139 -3 -257 -8 -263 -11 -7 -5 -11 -42 -11 -95 0
-124 11 -245 21 -229 5 7 9 24 9 38 0 17 10 30 32 43 17 10 35 14 39 10 4 -4
13 -30 20 -58 17 -76 43 -123 109 -200 58 -68 100 -133 100 -155 0 -6 -16 -32
-35 -57 -44 -58 -44 -78 0 -104 43 -26 44 -37 5 -74 -43 -41 -41 -85 4 -130
19 -19 42 -50 51 -69 18 -38 142 -154 192 -180 18 -9 56 -39 85 -67 91 -88
176 -115 200 -64 15 34 38 32 38 -4 0 -61 68 -104 186 -117 44 -6 55 -3 73 15
11 11 21 27 21 35 0 7 -20 53 -45 100 -81 157 -52 157 104 -2 123 -124 195
-172 310 -206 99 -29 310 -13 391 29 18 9 57 23 87 31 197 51 504 267 647 454
54 71 152 227 171 274 8 19 15 49 15 65 0 50 17 81 41 78 17 -1 24 5 30 26 8
28 -10 57 -34 57 -7 0 -25 37 -40 83 -34 105 -34 102 -22 102 6 0 10 -4 9 -10
-1 -10 123 -12 133 -1 3 3 7 16 9 28 2 13 9 47 14 76 6 29 10 80 8 115 l-3 62
-87 3 -88 3 0 29 c0 46 49 80 114 80 39 0 61 6 80 21 25 20 28 20 51 5 35 -23
45 -20 81 19 42 47 72 46 118 -2 l36 -38 0 51 c0 44 -5 57 -33 88 -18 20 -37
36 -41 36 -5 0 -24 -14 -43 -31 -45 -39 -73 -34 -130 26 -23 25 -51 45 -62 45
-11 0 -22 8 -26 18 -3 9 -16 46 -28 82 l-22 65 -150 5 c-123 4 -150 8 -153 20
-7 40 58 70 165 74 34 1 73 30 73 54 0 20 -81 154 -144 238 -76 103 -229 251
-336 328 -176 126 -388 212 -610 250 -120 20 -302 27 -401 16z m281 -324 c107
-17 212 -49 267 -82 57 -33 56 -48 -4 -40 -27 3 -156 10 -288 15 -373 16 -405
19 -405 45 0 22 49 59 87 66 65 13 254 11 343 -4z m180 -167 c409 -37 724
-149 746 -265 5 -26 0 -38 -24 -65 l-30 -34 -7 28 c-29 115 -420 209 -935 224
-327 9 -623 -15 -884 -73 -60 -13 -111 -22 -114 -19 -3 2 -11 -3 -19 -13 -8
-9 -12 -12 -9 -5 4 6 2 14 -4 18 -5 3 -10 2 -10 -4 0 -6 -7 -8 -15 -5 -9 4
-33 -5 -55 -20 -22 -14 -45 -26 -52 -26 -7 1 4 10 25 21 22 11 37 23 34 26 -3
2 -14 0 -25 -6 -31 -16 -41 -13 -12 4 14 8 32 12 41 9 9 -2 16 2 16 11 0 11
-7 14 -21 10 -21 -6 -21 -6 -2 9 11 9 26 16 33 16 7 0 13 5 13 10 0 6 -3 10
-7 10 -15 0 -75 -41 -70 -47 4 -3 -4 -14 -16 -24 -12 -10 -18 -18 -13 -19 5 0
3 -7 -4 -15 -11 -13 -10 -18 6 -29 10 -8 23 -12 29 -9 5 3 4 0 -2 -7 -20 -22
-53 15 -50 55 1 18 5 31 9 29 4 -3 12 4 18 15 24 45 222 117 426 155 271 51
659 64 984 35z m-577 -210 c71 -19 33 -62 -65 -74 -35 -5 -70 -3 -92 5 -107
35 42 101 157 69z m652 -13 c55 -36 1 -69 -98 -62 -104 8 -144 43 -86 74 33
18 150 10 184 -12z m-1138 -68 c18 -5 35 -13 38 -17 2 -5 -12 -3 -33 5 -43 15
-118 18 -127 5 -14 -24 111 -56 153 -40 22 8 23 8 12 -6 -28 -34 -190 0 -190
40 0 33 64 39 147 13z m1584 12 c31 -17 22 -40 -26 -61 -31 -14 -62 -19 -98
-17 -45 3 -52 6 -55 25 -4 24 16 38 75 52 53 13 81 13 104 1z m-676 -70 c126
-13 220 -31 205 -40 -11 -7 17 -19 43 -19 4 0 14 -6 22 -13 42 -38 45 -39 45
-23 0 19 36 20 43 1 7 -17 -8 -31 -54 -49 -46 -19 -109 -31 -89 -17 11 8 5 9
-22 4 -26 -4 -38 -3 -38 5 0 7 -4 9 -10 6 -5 -3 -10 1 -10 10 0 42 -201 71
-430 61 -160 -6 -241 -24 -265 -59 -12 -18 -25 -22 -64 -22 -27 0 -47 3 -45 6
2 4 -14 14 -36 23 -43 17 -50 36 -22 57 14 11 15 11 5 -1 -7 -8 -13 -20 -13
-27 0 -14 4 -12 45 25 8 7 17 12 20 12 3 0 17 3 31 6 17 4 22 9 14 14 -14 8
78 26 205 39 113 12 303 12 420 1z m-893 -69 c-18 -3 -34 -10 -35 -16 -3 -14
63 -35 91 -29 16 3 21 1 17 -7 -10 -16 -103 -6 -122 14 -27 26 -9 47 39 46 41
-2 42 -2 10 -8z m1486 -13 c5 -25 -50 -50 -101 -46 -34 2 -43 7 -45 24 -4 28
31 44 93 41 38 -2 51 -6 53 -19z m-1414 3 c4 -5 -3 -7 -14 -4 -23 6 -26 13 -6
13 8 0 17 -4 20 -9z m537 -85 c5 -6 10 5 10 30 2 30 3 33 6 11 5 -31 22 -27
25 6 1 12 4 -3 8 -33 l7 -55 1 53 c1 28 7 52 12 52 6 0 10 -8 11 -17 0 -15 2
-15 9 2 7 16 9 14 9 -15 1 -26 -2 -31 -9 -20 -7 11 -10 6 -9 -20 0 -19 3 -29
6 -22 4 10 8 10 19 1 12 -10 14 -3 15 42 1 46 3 49 9 24 7 -28 8 -29 10 -5 1
22 2 23 9 6 7 -19 8 -19 15 0 7 18 9 17 19 -6 10 -25 10 -25 14 -2 5 27 43 31
44 5 0 -15 2 -15 9 2 8 18 9 17 9 -7 1 -32 21 -39 21 -8 0 42 18 17 28 -37 l9
-58 3 60 2 60 9 -50 c4 -27 17 -187 29 -355 11 -168 27 -372 34 -455 7 -82 11
-153 9 -157 -6 -10 -45 -10 -61 1 -7 4 -18 38 -24 74 -6 37 -15 67 -19 67 -14
0 -22 -48 -17 -95 6 -49 -3 -71 -26 -62 -11 4 -16 19 -16 47 0 22 -4 40 -10
40 -5 0 -10 -13 -10 -28 0 -35 -9 -45 -27 -31 -9 8 -13 38 -13 100 0 53 -4 89
-10 89 -6 0 -10 -47 -10 -120 0 -121 -12 -158 -24 -75 -8 49 -23 59 -31 20 -3
-14 -7 -36 -10 -50 -3 -15 -12 -25 -23 -25 -14 0 -14 2 -3 9 21 13 5 44 -19
38 -17 -4 -20 0 -20 24 0 33 -14 38 -29 12 -9 -15 -10 -12 -11 15 0 17 -4 32
-10 32 -5 0 -10 -4 -10 -10 0 -5 -4 -10 -10 -10 -5 0 -10 28 -12 63 -3 61 -18
80 -28 35 -3 -13 -12 -23 -20 -23 -11 0 -16 15 -18 53 -2 37 -7 52 -18 52 -7
0 -14 7 -14 15 0 8 -4 15 -10 15 -13 0 -13 -13 0 -26 8 -8 7 -20 0 -40 -21
-53 -30 -6 -23 114 6 110 5 113 -15 119 -14 3 -22 13 -22 27 0 68 35 437 40
416 5 -22 7 -23 13 -7 4 10 7 45 7 78 0 33 4 59 10 59 6 0 10 -6 11 -12 0 -7
4 -4 9 7 6 15 9 8 9 -27 1 -27 6 -48 11 -48 6 0 10 9 10 20 0 13 5 18 15 14
11 -5 15 2 16 27 2 34 2 34 9 -6 l7 -40 2 38 c1 46 18 49 24 5 4 -32 4 -31 7
7 3 36 3 37 7 10 3 -16 9 -34 14 -39z m-88 34 c-3 -11 -7 -20 -9 -20 -2 0 -4
9 -4 20 0 11 4 20 9 20 5 0 7 -9 4 -20z m-86 -27 c-3 -10 -5 -4 -5 12 0 17 2
24 5 18 2 -7 2 -21 0 -30z m618 -13 c17 -7 14 -9 -13 -9 -20 -1 -31 3 -27 9 7
12 13 12 40 0z m815 -686 c0 -8 -19 -13 -24 -6 -3 5 1 9 9 9 8 0 15 -2 15 -3z
m-130 -40 c0 -8 -19 -13 -24 -6 -3 5 1 9 9 9 8 0 15 -2 15 -3z m64 -2 c2 -4
-4 -8 -14 -8 -10 0 -16 4 -14 8 3 4 9 8 14 8 5 0 11 -4 14 -8z m-2239 -14 c5
4 5 1 1 -5 -10 -18 -23 -16 -30 3 -5 13 -4 14 7 6 8 -7 18 -8 22 -4z m549 3
c3 -5 -3 -11 -14 -14 -13 -3 -20 0 -20 9 0 15 26 19 34 5z m-180 -12 c8 6 17
6 26 -1 13 -8 12 -9 -2 -4 -11 3 -28 -8 -49 -32 -18 -20 -37 -36 -42 -34 -5 1
-6 -2 -2 -7 3 -6 -1 -24 -10 -41 -8 -16 -12 -30 -7 -30 4 0 13 -15 20 -32 11
-31 10 -34 -25 -65 -20 -18 -38 -33 -39 -33 -10 0 -45 74 -40 86 7 19 -5 44
-56 112 -41 56 -66 64 -105 37 -18 -13 -22 -13 -34 1 -25 30 5 37 169 37 87 1
163 -3 170 -7 7 -4 10 -2 9 6 -2 7 -2 9 1 5 2 -4 9 -3 16 2z m138 -5 c7 -5 23
-7 35 -5 13 1 64 3 115 4 90 2 93 1 94 -20 1 -13 -2 -23 -8 -23 -5 0 -7 3 -5
8 8 12 -40 8 -52 -5 -9 -10 0 -13 45 -13 l57 0 -7 -31 c-3 -17 -6 -41 -7 -53
-1 -15 -4 -11 -10 12 -11 38 -31 41 -47 7 -6 -14 -20 -25 -29 -25 -10 0 -31
-7 -46 -15 -20 -10 -27 -11 -24 -2 2 6 -16 33 -40 60 -24 26 -41 51 -38 56 3
5 0 13 -6 17 -7 4 -9 3 -6 -4 5 -6 -2 -6 -18 1 -14 7 -25 19 -25 27 0 12 -2
12 -9 1 -6 -9 -11 -10 -15 -2 -4 6 -12 8 -18 5 -6 -4 -8 -3 -5 3 7 11 49 9 69
-3z m933 -358 c29 -13 29 -13 -20 -10 l-50 3 43 -10 c33 -8 41 -13 33 -23 -6
-7 -8 -16 -4 -19 11 -11 -27 -8 -49 4 -32 17 -66 -3 -71 -43 -4 -29 -5 -31
-12 -11 -10 31 -51 56 -73 45 -21 -10 -32 -10 -56 5 -18 10 -18 11 8 28 21 14
40 17 91 13 42 -4 63 -2 59 4 -17 27 51 36 101 14z m175 -41 c16 -8 34 -24 40
-35 14 -27 6 -25 -24 5 -14 14 -35 25 -48 24 -19 -1 -17 -2 8 -10 18 -5 34
-16 37 -24 5 -11 1 -12 -18 -5 -17 6 -27 5 -35 -6 -18 -20 -57 -17 -70 5 -5
11 -20 22 -32 24 -20 4 -19 4 4 6 16 0 35 -8 48 -21 11 -12 21 -20 21 -17 5
17 5 48 0 47 -19 -2 -24 4 -11 12 21 14 47 12 80 -5z m-136 -42 c-12 -2 -34
-17 -49 -34 -26 -27 -55 -39 -55 -22 0 18 67 62 95 61 21 0 23 -2 9 -5z m64
-102 c7 -4 -11 -6 -41 -3 -41 3 -57 0 -70 -13 -9 -9 -22 -13 -28 -9 -9 5 -6
11 6 21 21 14 112 18 133 4z m-155 -45 c18 -8 41 -21 52 -30 15 -12 6 -11 -40
6 -33 12 -64 25 -69 30 -16 13 21 9 57 -6z" fill="#FDAE25"/>
<path d="M1235 4397 c-36 -27 -8 -40 77 -35 78 5 107 16 94 37 -10 16 -148 14
-171 -2z" fill="#3BB5AA"/>
<path d="M1860 4401 c-38 -26 140 -57 180 -31 12 7 12 12 3 21 -15 15 -163 23
-183 10z" fill="#3BB5AA"/>
<path d="M2365 4326 c-53 -16 -51 -30 7 -34 50 -3 123 21 113 38 -8 13 -70 12
-120 -4z" fill="#3BB5AA"/>
<path d="M2130 4180 c0 -6 -19 -18 -42 -27 -23 -9 -37 -18 -32 -20 18 -6 84
27 84 42 0 8 -2 15 -5 15 -3 0 -5 -5 -5 -10z" fill="#3BB5AA"/>
<path d="M1090 4175 c0 -10 67 -35 92 -34 18 0 16 3 -12 13 -60 22 -80 28 -80
21z" fill="#3BB5AA"/>
<path d="M2035 4162 c-27 -8 -45 -17 -38 -19 16 -6 91 15 98 27 8 12 2 12 -60
-8z" fill="#3BB5AA"/>
<path d="M2303 4200 c-35 -14 -27 -30 13 -30 38 0 74 15 74 30 0 12 -57 12
-87 0z" fill="#3BB5AA"/>
<path d="M1732 4135 c0 -16 2 -22 5 -12 2 9 2 23 0 30 -3 6 -5 -1 -5 -18z" fill="#3BB5AA"/>
<path d="M1383 4075 c0 -33 2 -45 4 -27 2 18 2 45 0 60 -2 15 -4 0 -4 -33z" fill="#3BB5AA"/>
<path d="M1507 4093 c-4 -3 -7 -12 -7 -20 0 -15 26 -18 34 -4 7 11 -18 33 -27 24z" fill="#3BB5AA"/>
<path d="M1420 4060 c0 -5 5 -10 10 -10 6 0 10 5 10 10 0 6 -4 10 -10 10 -5 0
-10 -4 -10 -10z" fill="#3BB5AA"/>
<path d="M1772 3996 c1 -10 8 -17 13 -17 15 1 12 24 -3 29 -9 3 -13 -2 -10 -12z" fill="#3BB5AA"/>
<path d="M1620 3950 c0 -27 5 -50 10 -50 6 0 10 23 10 50 0 28 -4 50 -10 50
-5 0 -10 -22 -10 -50z" fill="#3BB5AA"/>
<path d="M1573 3910 c0 -36 2 -50 4 -32 2 17 2 47 0 65 -2 17 -4 3 -4 -33z" fill="#3BB5AA"/>
<path d="M1603 3900 c0 -36 2 -50 4 -32 2 17 2 47 0 65 -2 17 -4 3 -4 -33z" fill="#3BB5AA"/>
<path d="M1455 3930 c-8 -14 3 -30 21 -30 8 0 14 9 14 20 0 21 -24 28 -35 10z" fill="#3BB5AA"/>
<path d="M1677 3934 c-8 -8 1 -24 14 -24 5 0 9 7 9 15 0 15 -12 20 -23 9z" fill="#3BB5AA"/>
<path d="M1746 3931 c-4 -5 -2 -12 3 -15 5 -4 12 -2 15 3 4 5 2 12 -3 15 -5 4
-12 2 -15 -3z" fill="#3BB5AA"/>
<path d="M1645 3827 c-16 -7 -44 -20 -61 -29 -35 -19 -124 -116 -124 -134 0
-7 -12 -22 -27 -33 -24 -18 -25 -20 -8 -21 11 0 44 26 78 63 33 34 52 51 43
37 -9 -14 -24 -38 -34 -54 -9 -16 -27 -39 -39 -51 -31 -30 -29 -34 11 -32 19
1 32 6 29 10 -9 14 46 95 87 127 46 36 55 35 40 -4 -5 -15 -10 -32 -10 -39 0
-22 25 13 35 50 11 39 35 57 35 25 0 -10 -7 -41 -15 -68 -8 -27 -15 -52 -15
-56 0 -16 21 -8 26 10 3 9 12 33 19 52 8 19 16 47 19 61 5 22 10 25 31 22 17
-4 27 0 31 12 8 21 -17 48 -48 50 -13 1 -34 5 -48 8 -14 3 -38 1 -55 -6z" fill="#3BB5AA"/><!--pessoa-->>
<path d="M1390 3800 c0 -5 5 -10 10 -10 6 0 10 5 10 10 0 6 -4 10 -10 10 -5 0
-10 -4 -10 -10z" fill="#3BB5AA"/>
<path d="M1340 3675 c0 -8 7 -15 15 -15 8 0 15 7 15 15 0 8 -7 15 -15 15 -8 0
-15 -7 -15 -15z" fill="#3BB5AA"/>
<path d="M1400 3680 c0 -5 5 -10 10 -10 6 0 10 5 10 10 0 6 -4 10 -10 10 -5 0
-10 -4 -10 -10z" fill="#3BB5AA"/>
<path d="M1816 3631 c-4 -5 -2 -12 3 -15 5 -4 12 -2 15 3 4 5 2 12 -3 15 -5 4
-12 2 -15 -3z" fill="#3BB5AA"/>
<path d="M1570 3573 c0 -41 3 -54 10 -43 13 20 13 100 0 100 -6 0 -10 -26 -10
-57z" fill="#3BB5AA"/>
<path d="M1640 3556 c0 -30 5 -58 10 -61 6 -4 10 17 10 54 0 34 -4 61 -10 61
-5 0 -10 -24 -10 -54z" fill="#3BB5AA"/>
<path d="M1355 3580 c-3 -5 -1 -10 4 -10 6 0 11 5 11 10 0 6 -2 10 -4 10 -3 0
-8 -4 -11 -10z" fill="#3BB5AA"/>
<path d="M1684 3470 c0 -58 1 -81 3 -52 2 28 2 76 0 105 -2 28 -3 5 -3 -53z" fill="#3BB5AA"/>
<path d="M1604 3534 c-4 -14 -2 -40 4 -57 9 -30 10 -28 11 26 1 61 -5 73 -15
31z" fill="#3BB5AA"/>
<path d="M1513 3490 c0 -36 2 -50 4 -32 2 17 2 47 0 65 -2 17 -4 3 -4 -33z" fill="#3BB5AA"/>
<path d="M1804 3515 c-4 -9 -2 -21 4 -27 15 -15 44 -1 40 19 -4 23 -36 29 -44
8z" fill="#3BB5AA"/>
<path d="M1544 3430 c0 -52 1 -74 3 -47 2 26 2 68 0 95 -2 26 -3 4 -3 -48z" fill="#3BB5AA"/>
<path d="M1450 3480 c0 -5 5 -10 10 -10 6 0 10 5 10 10 0 6 -4 10 -10 10 -5 0
-10 -4 -10 -10z" fill="#3BB5AA"/>
<path d="M1570 3430 c0 -33 4 -60 10 -60 6 0 10 27 10 60 0 33 -4 60 -10 60
-6 0 -10 -27 -10 -60z" fill="#3BB5AA"/>
<path d="M1750 3479 c0 -5 5 -7 10 -4 6 3 10 8 10 11 0 2 -4 4 -10 4 -5 0 -10
-5 -10 -11z" fill="#3BB5AA"/>
<path d="M1645 3470 c-3 -5 -1 -10 4 -10 6 0 11 5 11 10 0 6 -2 10 -4 10 -3 0
-8 -4 -11 -10z" fill="#3BB5AA"/>
<path d="M1647 3443 c-11 -10 -8 -101 3 -108 6 -4 10 17 10 54 0 62 -1 66 -13
54z" fill="#3BB5AA"/>
<path d="M1460 3380 c0 -5 5 -10 10 -10 6 0 10 5 10 10 0 6 -4 10 -10 10 -5 0
-10 -4 -10 -10z" fill="#3BB5AA"/>
<path d="M1613 3335 c0 -33 2 -45 4 -27 2 18 2 45 0 60 -2 15 -4 0 -4 -33z" fill="#3BB5AA"/>
<path d="M1513 3320 c0 -36 2 -50 4 -32 2 17 2 47 0 65 -2 17 -4 3 -4 -33z" fill="#3BB5AA"/>
<path d="M1840 3360 c0 -5 5 -10 10 -10 6 0 10 5 10 10 0 6 -4 10 -10 10 -5 0
-10 -4 -10 -10z" fill="#3BB5AA"/>
<path d="M1570 3350 c0 -5 5 -10 10 -10 6 0 10 5 10 10 0 6 -4 10 -10 10 -5 0
-10 -4 -10 -10z" fill="#3BB5AA"/>
<path d="M1577 3313 c-11 -10 -8 -91 3 -98 6 -4 10 15 10 49 0 57 -1 61 -13
49z" fill="#3BB5AA"/>
<path d="M1750 3250 c0 -5 5 -10 10 -10 6 0 10 5 10 10 0 6 -4 10 -10 10 -5 0
-10 -4 -10 -10z" fill="#3BB5AA"/>
<path d="M1570 3180 c0 -5 5 -10 10 -10 6 0 10 5 10 10 0 6 -4 10 -10 10 -5 0
-10 -4 -10 -10z" fill="#3BB5AA"/>
<path d="M1683 2960 c-33 -14 -29 -15 27 -12 27 2 50 8 50 13 0 11 -48 11 -77
-1z" fill="#3BB5AA"/>
</g>
</svg>
