<svg xmlns="http://www.w3.org/2000/svg" xmlns:xlink="http://www.w3.org/1999/xlink" version="1.1" width="256" height="256" viewBox="0 0 256 256" xml:space="preserve">
<desc>Created with Fabric.js 1.7.22</desc>
<defs>
</defs>
<g transform="translate(128 128) scale(0.72 0.72)" style="">
	<g style="stroke: none; stroke-width: 0; stroke-dasharray: none; stroke-linecap: butt; stroke-linejoin: miter; stroke-miterlimit: 10; fill: none; fill-rule: nonzero; opacity: 1;" transform="translate(-175.05 -175.05000000000004) scale(3.89 3.89)" >
	<path d="M 80.071 14.56 H 9.929 C 4.454 14.56 0 19.014 0 24.489 v 41.505 c 0 5.476 4.454 9.93 9.929 9.93 h 3.57 l 9.272 9.271 c 0.585 0.586 1.354 0.879 2.121 0.879 s 1.536 -0.293 2.121 -0.879 l 9.272 -9.271 h 43.786 c 5.475 0 9.929 -4.454 9.929 -9.93 V 24.489 C 90 19.014 85.546 14.56 80.071 14.56 z M 69.381 55.4 H 20.619 c -1.657 0 -3 -1.343 -3 -3 s 1.343 -3 3 -3 h 48.762 c 1.657 0 3 1.343 3 3 S 71.038 55.4 69.381 55.4 z M 69.381 41.083 H 20.619 c -1.657 0 -3 -1.343 -3 -3 s 1.343 -3 3 -3 h 48.762 c 1.657 0 3 1.343 3 3 S 71.038 41.083 69.381 41.083 z" style="stroke: none; stroke-width: 1; stroke-dasharray: none; stroke-linecap: butt; stroke-linejoin: miter; stroke-miterlimit: 10; fill: rgb(255,255,255); fill-rule: nonzero; opacity: 1;" transform=" matrix(1 0 0 1 0 0) " stroke-linecap="round" />
</g>
</g>
</svg>