<?xml version="1.0" standalone="no"?>
<!DOCTYPE svg PUBLIC "-//W3C//DTD SVG 20010904//EN"
 "http://www.w3.org/TR/2001/REC-SVG-20010904/DTD/svg10.dtd">
<svg version="1.0" xmlns="http://www.w3.org/2000/svg"
 width="353.000000pt" height="707.000000pt" viewBox="0 0 353.000000 707.000000"
 preserveAspectRatio="xMidYMid meet">

<g transform="translate(0.000000,707.000000) scale(0.100000,-0.100000)"
fill="#4382B5" stroke="none">
<path d="M1615 4446 c-273 -55 -488 -221 -616 -476 -57 -115 -80 -211 -86
-361 -6 -132 3 -173 35 -167 13 3 15 18 13 108 -2 119 14 221 53 323 40 107
77 167 103 167 12 0 56 19 98 41 97 53 196 79 296 79 87 0 173 -15 188 -33 14
-17 -280 -591 -306 -595 -25 -5 -41 -22 -20 -22 28 0 19 -24 -15 -40 -62 -29
-56 -110 9 -126 63 -16 105 53 68 110 -23 34 -2 43 24 10 40 -51 21 -119 -39
-144 -16 -7 -30 -16 -30 -21 0 -25 70 9 94 45 25 38 21 99 -9 134 -26 31 -31
51 -16 67 5 6 68 127 141 270 73 143 134 262 136 263 1 2 17 1 34 -3 29 -6 31
-10 27 -34 -5 -25 1 -32 68 -79 90 -63 145 -129 199 -242 l41 -85 0 -145 c0
-135 -2 -150 -28 -215 -15 -38 -47 -97 -72 -130 -43 -57 -44 -61 -27 -75 10
-8 27 -36 36 -62 18 -50 17 -49 119 -74 27 -6 47 -36 47 -69 0 -20 -63 -50
-161 -77 -122 -33 -328 -33 -449 0 -81 23 -165 59 -238 104 -36 22 -57 15 -50
-18 4 -24 122 -86 238 -125 84 -28 111 -33 235 -37 118 -3 154 -1 228 17 244
58 435 193 563 397 143 229 164 544 54 808 -100 239 -332 440 -581 501 -89 22
-315 28 -404 11z m93 -154 c2 -7 -3 -12 -12 -12 -9 0 -16 7 -16 16 0 17 22 14
28 -4z m440 -88 c3 -22 -21 -39 -39 -28 -11 6 -12 38 -2 48 13 13 38 1 41 -20z
m295 -205 c28 -40 -5 -85 -50 -68 -43 16 -24 87 24 89 6 0 18 -9 26 -21z
m-245 -213 c5 -25 -12 -39 -37 -31 -20 6 -28 34 -14 49 13 13 48 1 51 -18z
m322 -152 c0 -17 -22 -14 -28 4 -2 7 3 12 12 12 9 0 16 -7 16 -16z m-47 -278
c8 -20 -8 -38 -29 -34 -22 4 -31 37 -13 48 15 10 36 3 42 -14z m-303 -126 c0
-5 -4 -10 -10 -10 -5 0 -10 5 -10 10 0 6 5 10 10 10 6 0 10 -4 10 -10z m48
-92 c-4 -27 -33 -36 -42 -13 -8 22 1 35 25 35 15 0 20 -6 17 -22z"/>
<path d="M1737 3908 c-13 -18 -68 -115 -120 -216 -89 -169 -95 -185 -82 -205
40 -63 21 -154 -43 -207 l-36 -29 25 -9 c82 -31 427 -142 441 -142 22 0 101
121 121 185 28 91 30 113 10 111 -28 -2 -31 44 -2 51 20 6 21 10 16 72 -6 76
-34 153 -79 220 -56 84 -106 129 -215 194 -7 5 -21 -6 -36 -25z m87 -84 c23
-9 20 -44 -3 -44 -22 0 -45 25 -36 40 7 11 17 13 39 4z m-54 -64 c0 -5 -7 -10
-15 -10 -8 0 -15 5 -15 10 0 6 7 10 15 10 8 0 15 -4 15 -10z m160 -219 c13
-25 13 -58 0 -66 -17 -11 -40 15 -40 45 0 43 22 54 40 21z m-190 -91 c0 -11
-4 -20 -10 -20 -5 0 -10 9 -10 20 0 11 5 20 10 20 6 0 10 -9 10 -20z"/>
<path d="M1282 3468 c-14 -14 -16 -48 -3 -48 9 0 25 49 18 56 -2 2 -9 -2 -15
-8z"/>
<path d="M1270 3381 c0 -11 5 -23 10 -26 6 -3 10 3 10 14 0 11 -4 23 -10 26
-5 3 -10 -3 -10 -14z"/>
<path d="M945 3340 c-10 -17 59 -163 120 -254 64 -96 117 -148 140 -140 27 11
16 35 -43 100 -52 56 -141 211 -166 287 -6 18 -41 23 -51 7z"/>
<path d="M1310 3321 c0 -11 31 -24 39 -16 3 3 -1 10 -9 15 -19 12 -30 12 -30
1z"/>
<path d="M1502 3103 c3 -17 29 -34 76 -48 18 -5 22 -2 22 15 0 15 -11 25 -35
36 -46 19 -67 18 -63 -3z"/>
<path d="M1630 3061 c0 -11 9 -25 19 -31 18 -9 287 -100 298 -100 2 0 3 10 1
22 -2 18 -25 29 -140 69 -194 67 -178 63 -178 40z"/>
</g>
</svg>
